{"title":"The.Good.Guy.2009.DVDRiP.XviD.OPTIONAL-NORDIC_SUB-Zen_Bud","uid":5919096,"size":762903096,"categoryP":"video","categoryS":"movies","magnet":"?xt=urn:btih:5767db94aafb0ee475348c374439aa2eea644fdc&amp;dn=The.Good.Guy.2009.DVDRiP.XviD.OPTIONAL-NORDIC_SUB-Zen_Bud&amp;tr=udp%3A%2F%2Ftracker.openbittorrent.com%3A80&amp;tr=udp%3A%2F%2Fopen.demonii.com%3A1337&amp;tr=udp%3A%2F%2Ftracker.coppersurfer.tk%3A6969&amp;tr=udp%3A%2F%2Fexodus.desync.com%3A6969","seeders":1,"leechers":0,"uploader":"Zen_Bud","files":-1,"time":1288339727,"description":"\n******* The.Good.Guy.2009.DVDRiP.XviD.OPTIONAL-NORDIC_SUB-Zen_Bud *******\n\nFormat                           : AVI\nFile size                        : 706 MiB\nDuration                         : 1h 26mn\nOverall bit rate                 : 1 135 Kbps\n\nVideo\n\nFormat                           : MPEG-4 Visual\nCodec ID/Hint                    : XviD\nDuration                         : 1h 26mn\nBit rate                         : 994 Kbps\nWidth                            : 720 pixels\nHeight                           : 576 pixels\nDisplay aspect ratio             : 16:9\nStream size                      : 618 MiB (88%)\nWriting library                  : XviD 1.1.2 (UTC 2006-11-01)\n\nAudio\n\nFormat                           : MPEG Audio\nCodec ID/Hint                    : MP3\nDuration                         : 1h 26mn\nBit rate                         : 128 Kbps\nChannel(s)                       : 2 channels\nSampling rate                    : 48.0 KHz\nStream size                      : 79.6 MiB (11%)\nLanguage                         : English\n\nText #1\nLanguage                         : Swedish\n\nText #2\nLanguage                         : Danish\n\nText #3\nLanguage                         : Norwegian\n\nText #4\nLanguage                         : Finnish\n\nText #5\nLanguage                         : Icelandic\n\nAmbitious young Manhattanite and urban conservationist Beth wants it all: a good job, good friends, and a good guy to share the city with. Of course that last one is often the trickiest of all. Beth falls hard for Tommy, a sexy, young Wall Street hot-shot. But just as everything seems to be falling into place","torrent":{"xt":"urn:btih:5767db94aafb0ee475348c374439aa2eea644fdc","amp;dn":"The.Good.Guy.2009.DVDRiP.XviD.OPTIONAL-NORDIC_SUB-Zen_Bud","amp;tr":["udp%3A%2F%2Ftracker.openbittorrent.com%3A80","udp%3A%2F%2Fopen.demonii.com%3A1337","udp%3A%2F%2Ftracker.coppersurfer.tk%3A6969","udp%3A%2F%2Fexodus.desync.com%3A6969"],"infoHash":"5767db94aafb0ee475348c374439aa2eea644fdc","infoHashBuffer":{"type":"Buffer","data":[87,103,219,148,170,251,14,228,117,52,140,55,68,57,170,46,234,100,79,220]},"announce":[],"urlList":[]}}